<svg xmlns="http://www.w3.org/2000/svg" viewBox="0 0 720 300">
    <g fill-rule="evenodd">
        <g fill="#797f9f">
            <path d="M25.1 210.3c32.4-32.8 24.1-113 24.3-171-33.4 16.3-21.8 64.8-21.8 64.8-20-25.8-15.4-42-13-45C38 20.7 75 19.4 75 19.4c8.2 177.8-20.6 176-41.5 192.5-5.8.6-8.5-1.6-8.5-1.6zM83 124.7c-.4 18.2-7.3 76.5 28.6 80.3 0 0 19.2-72.3 35.5-91.2 0 0-10.4 35.8-6.6 75.5 0 0 8 14 26.5 20 0 0-8-43.4 12.4-102.5 0 0-13.3-10.2-31.3-8.2 0 0-16.3 14.1-38.3 81-2.8-17-4.1-24.7.9-51.6 0 0-12.3-7-27.6-3.3zM268.6 10.4c-3.2 18.3-5.8 34.4-7.8 49-24.4-.5-48.9-2-70.4-5 0 0 29.4 20.7 40.1 21.7 10 0 19.4-.1 28.3-.5-9.5 81.9 2.6 101.7 17.3 128.7 0 0 5.3 5.5 13.2 5.4-12.8-32-14.5-67-3.9-135.8 68-6.3 95.8-24 95.8-24-20.7 5.3-55.7 8.7-93.4 9.4 1.4-8.6 3-17.8 4.8-27.4 0 0-10.4-17.7-24-21.5z"/>
            <path d="M179 203c32.4-9.4 43.5-39 43.5-39-35.7.5-38.6-14.7-38.6-14.7-5.1-69.5 52.8-61.6 59-55.2 13.3 12-22.3 42.7-22.3 42.7 11.4-33-.9-31.3-.9-31.3-9-.3-20.6 30.8-15.2 38.5 14 7.4 36.8 1.1 39.2 18.3-4.7 30.7-47.4 47.5-47.4 47.5-7.6-.6-17.3-6.9-17.3-6.9zM401.2 111.2c-2.2 20.4-9.3 68-22.8 77-6 3.4-7.6-5.8-8.2-51.9 0 0-10-6.4-26.8-2.7.6 16.5-9.5 63.3-22 57.4-13.3-8.4 4.7-95.6 33.8-82.8 0 0 6.4 4.9 8.3 19.1 0 0 3.1-.4 4.5-2.5-.4-6.8-2.7-33.7-41.2-27.8-17.8 6.6-52.8 73.3-20 100.7 29.5 18.6 40-37.8 40-37.8s9 46.5 19.7 46.7c5.7.3 29-6.5 39.3-88.4 0 0-1.7-4.9-4.6-7z"/>
        </g>
        <g fill="#606990">
            <path d="M510.7 52.4A123.1 123.1 0 0 0 411 161.8c.8 40.7 22.6 41.9 29 38.6 42.7-17.7 47.3-76.3 47.3-76.3-14-1-36.7 9.7-36.7 9.7l4.6-6.1c30.1-20.7 61.6-16.5 61.6-16.5-48.8 99.2-11.5 166.6-5.3 177.6-5.7.4-10.8-3-10.8-3C463.3 233.6 471 195 471 195c-10.5 13-32.3 16.1-40.9 14.4-25.4-6.8-35.7-34.2-36.8-64.1C396.9 64.5 481 27 481 27c26.5 3.6 29.6 25.4 29.6 25.4z"/>
            <path d="M567.8 104.3a13 13 0 0 0-3.6.5 209.4 209.4 0 0 0-22.6 54.4c.9-16.6 2.7-34.7 5.8-54.2 0 0-13.6-.2-23.2 4.6 0 0-23.3 78.5 18.8 164.4a58 58 0 0 0 21 13.7c-9.5-14-18.4-39.4-21.6-76.3 1-47.1 18-112.3 29.4-94.2 3.7 6.7 9.8 72.4-20.7 87.8 15.8 5.5 28.6.3 28.6.3 32.9-27.2 18-80.6 12.8-89a31.6 31.6 0 0 0-24.7-12z"/>
            <path d="M676.1 78.8c-3.9 32-15.2 57.4-28 76.8a438.3 438.3 0 0 1-20.4-65.2 79.7 79.7 0 0 0-24.8 19.3c9 28.5 19.1 49.9 29.4 66-18.8 21-36.4 30.5-36.4 30.5 3.3 5 11.9 6.3 11.9 6.3a151 151 0 0 0 33.7-23.7 98.4 98.4 0 0 0 56.5 38c6-.9 9.5-7.3 9.5-7.3a97.7 97.7 0 0 1-51-46.7c32.3-39.5 38.7-84.6 38.7-84.6-5.5-8.2-19-9.4-19-9.4z"/>
        </g>
    </g>
</svg>
