<svg xmlns="http://www.w3.org/2000/svg" viewBox="0 0 800 300">
  <path fill="#6eb4d5" d="M121 24A106 106 0 0 0 15 130h36a70 70 0 0 1 70-70 70 70 0 0 1 70 70 70 70 0 0 1-70 70v36a106 106 0 0 0 106-106A106 106 0 0 0 121 24z"/>
  <path fill="#437db2" d="M121 77a53 53 0 0 0-53 53v53h53a53 53 0 0 0 53-53 53 53 0 0 0-53-53zm0 18a35 35 0 0 1 35 35 35 35 0 0 1-35 35H86v-35a35 35 0 0 1 35-35z"/>
  <circle cx="121" cy="130" r="17" fill="#6eb4d5"/>
  <g fill-rule="evenodd">
    <g fill="#2a2a2a">
      <path d="M253 85c0 65 9 77 9 77 3 5 14 11 14 11 23-11 30-35 30-35 2 19 5 28 5 28 7 7 20 11 20 11 4-32 13-51 23-74-8 35 0 63 0 63 11 12 24 14 24 14-10-41 2-87 2-87-6-9-20-11-20-11-23 27-32 62-34 72-2-17-1-42-1-42-6-6-22-3-22-3 1 23-9 33-20 51-7-27-4-60-4-60-8-11-26-15-26-15zm131 90s16-1 34-30c0 0-39 8-36-25 2-10 11-27 21-33 3-2 39-8 34 14 0 0-3 13-20 24 0 0 8-32-4-21 0 0-13 14-9 27 12 3 33-6 33 9 0 10-22 41-39 41 0 0-10 0-14-6z"/>
      <path d="M459 27c-2 16-5 27-7 37-18-1-38-2-57-7 0 0 15 17 29 21l26-1c-4 16-7 33-6 63 0 0 1 36 29 46 0 0-9-18-8-66l6-44c19-2 42-4 64-9 0 0 4-3 4-6 0 0-28 4-66 4l5-24s-5-14-19-14z"/>
      <path d="M532 112c1-20-11-18-11-18-7 0-20 25-22 37-7 31 0 33 0 33 7 0 15-28 18-46 7-4 20-2 20-2 0 35 6 48 6 48 4-6 11-23 14-34l3 4c-2 25-15 39-15 39-10 5-18 0-18 0-8-8-9-26-9-26-4 19-17 23-17 23-24 2-28-25-26-43 4-26 24-41 24-41 15-4 29 4 29 4 11 5 9 20 9 20l-5 2zM249 54c8-9 23 1 23 1 11 7 11 15 10 16-4 6-16 2-21 0-11-5-15-13-12-17z"/>
    </g>
    <g fill="#2a2a2a">
      <path d="M585 76c-55 53-26 96-6 101 11 2 20-2 26-8v18c-14-1-31 0-53 5 0 0-3 15 6 23 12-4 32-10 49-10l1 6s2 5 9 8l-1-14c8 2 15 4 20 9 1 1 14 15-12 30-10 5-81 32-106 16-1-5 9-22 37-22l12-6s-52-9-64 23c1 7 9 20 21 30 0 0 27 10 69-5 24-7 70-34 61-64-1-5-11-21-39-27l1-42c3-10 4-21 4-26-3-5-12-9-12-9 2 46-21 58-26 57-24-13-2-59 22-76-3-15-19-17-19-17zm142 6c-10 3-19 13-19 13 4 20 12 38 20 53-14 16-27 25-27 25 10 5 22 4 22 4l16-15c10 13 19 21 22 24 15 2 23-3 23-3-13-13-23-25-30-38 17-25 20-45 20-45-4-12-11-12-11-12-5 15-11 29-19 40-9-20-14-37-17-46z"/>
      <path d="M637 80a226 226 0 0 0 13 155c4 4 14 4 14 4-5-14-8-28-11-41-5-65 17-110 25-101 6 22 10 72-17 75 0 0 9 9 20 7 40-24 21-82 17-88-16-9-31-3-31-3-8 15-14 30-16 45 1-21 4-37 5-45-4-7-19-8-19-8z"/>
    </g>
  </g>
</svg>
