<svg viewBox="0 0 900 450" xmlns="http://www.w3.org/2000/svg">
    <g fill-rule="evenodd">
        <g fill="#999fbf">
            <path d="M20 106c0 106 15 126 15 126 4 8 23 19 23 19 36-18 48-58 48-58 4 31 9 46 9 46 11 12 32 17 32 17 7-51 21-82 37-121-13 58 0 104 0 104 18 20 40 23 40 23-16-67 3-142 3-142-9-16-33-19-33-19-37 45-51 101-55 118-3-27-1-68-1-68-10-11-37-5-37-5 2 37-14 54-32 83-12-44-7-98-7-98-13-18-42-25-42-25zM233 253s27-1 56-49c0 0-63 14-58-41 3-15 18-43 34-53 5-4 64-13 55 22 0 0-5 22-33 40 0 0 13-53-6-35 0 0-21 23-15 44 20 5 55-10 55 16 0 16-37 67-64 67 0 0-17-1-24-11z"/>
            <path d="M356 12c-3 25-7 43-11 60-30-1-62-4-93-11 0 0 24 27 47 34l42-1c-6 26-10 54-9 102 0 0 2 59 47 76 0 0-15-30-12-109 2-24 6-49 9-71 31-3 68-7 105-15 0 0 7-5 7-10 0 0-47 6-108 6l8-39s-9-23-32-22z"/>
            <path d="M476 150c1-33-18-29-18-29-11 0-33 41-37 61-10 51 1 54 1 54 12 0 25-46 29-75 12-8 33-4 33-4 0 57 9 78 9 78 8-9 19-37 24-55 0 0 3 3 4 7-3 41-24 64-24 64-16 7-30-1-30-1-12-13-14-42-14-42-6 30-28 38-28 38-39 2-46-42-43-71 7-43 40-67 40-67 24-6 47 6 47 6 18 8 15 33 15 33l-8 3zM13 56c13-15 38 2 38 2 18 11 18 23 16 25-7 10-26 4-34 1-18-8-25-21-20-28z"/>
        </g>
        <g fill="#606990">
            <path d="M563 91c-91 88-43 157-11 165 19 4 33-2 43-12v29c-22-2-50 0-86 9 0 0-5 23 10 37 19-7 51-16 79-16l2 10s4 8 14 13l-1-23c13 2 24 6 32 14 3 2 24 24-19 50-16 8-132 52-173 26-2-8 14-36 60-36l20-10s-85-15-104 37c1 12 14 33 34 49 0 0 43 16 113-8 38-12 114-56 99-105-2-7-17-34-63-44l1-68c5-17 6-34 6-42-5-9-19-15-19-15 4 75-34 95-43 92-38-21-2-95 36-124-4-24-30-28-30-28zM794 101c-16 5-30 21-30 21 6 34 19 63 33 87-24 27-45 41-45 41 16 8 36 6 36 6l26-24c16 21 31 34 36 39 25 3 38-5 38-5-21-20-38-41-50-62 29-41 34-73 34-73-7-19-18-20-18-20-8 25-19 47-32 66-15-33-23-61-28-76z"/>
            <path d="M648 98a369 369 0 0 0 20 253c7 7 23 7 23 7-8-23-13-45-17-67-8-107 28-180 41-165 10 36 16 117-28 123 0 0 14 15 32 11 66-39 34-134 28-144-26-15-50-4-50-4-14 23-23 48-27 72 2-34 7-60 9-73-7-12-31-13-31-13z"/>
        </g>
    </g>
</svg>
