<svg xmlns="http://www.w3.org/2000/svg" viewBox="0 0 1200 460">
    <g transform="translate(0 -592.4)">
        <path fill="#898faf" d="M27.7 822.4a192.9 192.9 0 1 1 192.9 192.8V951A128.6 128.6 0 1 0 92 822.4"/>
        <path fill="#505980" fill-rule="evenodd" d="M124.1 918.8v-96.4a96.4 96.4 0 1 1 96.5 96.4m-64.3-32.2v-64.2a64.3 64.3 0 1 1 64.3 64.2"/>
        <circle cx="220.6" cy="822.4" r="32.1" fill="#898faf"/>
        <g fill="#898faf" fill-rule="evenodd">
            <path d="M453.6 758c0 89.3 12.6 106.2 12.6 106.2 3.4 6.7 19.4 16 19.4 16 30.4-15.2 40.5-49 40.5-49 3.4 26.2 7.6 38.9 7.6 38.9a62 62 0 0 0 27 14.3c5.9-43 17.7-69.1 31.2-102-11 48.9 0 87.7 0 87.7a61 61 0 0 0 33.7 19.4c-13.5-56.5 2.5-119.8 2.5-119.8-7.5-13.5-27.8-16-27.8-16-31.2 38-43 85.2-46.4 99.5-2.5-22.7-.8-57.3-.8-57.3-8.4-9.3-31.2-4.2-31.2-4.2 1.7 31.2-11.8 45.5-27 70-10.1-37.2-5.9-82.7-5.9-82.7-11-15.2-35.4-21-35.4-21zm179.6 123.9s22.8-.8 47.2-41.3c0 0-53.1 11.8-48.9-34.6 2.5-12.7 15.2-36.3 28.7-44.7 4.2-3.4 54-11 46.4 18.6 0 0-4.2 18.5-27.9 33.7 0 0 11-44.7-5-29.5 0 0-17.7 19.4-12.7 37 16.9 4.3 46.4-8.4 46.4 13.6 0 13.5-31.2 56.5-54 56.5 0 0-14.3-.9-20.2-9.3z"/>
            <path d="M737 678.7c-2.6 21-6 36.2-9.3 50.6a423 423 0 0 1-78.5-9.3s20.3 22.7 39.7 28.7l35.4-.9c-5 22-8.5 45.5-7.6 86 0 0 1.7 49.8 39.6 64.1 0 0-12.6-25.3-10-91.9 1.6-20.2 5-41.3 7.5-59.9a770 770 0 0 0 88.5-12.6s6-4.2 6-8.5c0 0-39.7 5.1-91.1 5.1l6.7-32.9s-7.6-19.4-27-18.5z"/>
            <path d="M838.1 795c.9-27.8-15.2-24.4-15.2-24.4-9.2 0-27.8 34.6-31.2 51.4-8.4 43 .9 45.6.9 45.6 10.1 0 21-38.8 24.4-63.3 10.2-6.7 27.9-3.4 27.9-3.4 0 48.1 7.6 65.8 7.6 65.8 6.7-7.6 16-31.2 20.2-46.4 0 0 2.5 2.6 3.4 6-2.6 34.5-20.3 54-20.3 54-13.5 5.8-25.3-1-25.3-1-10-10.9-11.8-35.4-11.8-35.4-5 25.3-23.6 32-23.6 32-32.9 1.8-38.8-35.3-36.2-59.8a94 94 0 0 1 33.7-56.5c20.2-5 39.6 5 39.6 5 15.2 6.8 12.7 27.9 12.7 27.9L838 795zm-390.4-79.2c11-12.7 32 1.6 32 1.6 15.2 9.3 15.2 19.4 13.5 21.1-5.9 8.5-22 3.4-28.7.9-15.1-6.8-21-17.7-16.8-23.6z"/>
        </g>
        <g fill="#505980" fill-rule="evenodd">
            <path d="M911.5 745.3c-76.7 74.2-36.3 132.4-9.3 139.1 16 3.4 27.8-1.7 36.3-10.1v24.5c-18.6-1.7-42.2 0-72.5 7.5 0 0-4.3 19.4 8.4 31.3 16-6 43-13.5 66.6-13.5l1.7 8.4s3.4 6.7 11.8 11l-.8-19.4c11 1.6 20.2 5 27 11.8 2.5 1.7 20.2 20.2-16 42.1-13.6 6.8-111.4 43.9-146 22-1.7-6.8 11.8-30.4 50.6-30.4l16.9-8.4s-71.7-12.7-87.7 31.2c.8 10 11.8 27.8 28.7 41.3 0 0 36.2 13.5 95.3-6.8 32-10 96.1-47.2 83.4-88.5-1.6-6-14.3-28.7-53-37.1l.8-57.4c4.2-14.3 5-28.6 5-35.4-4.2-7.6-16-12.6-16-12.6 3.4 63.2-28.7 80-36.3 77.6-32-17.7-1.7-80.2 30.4-104.6-3.4-20.2-25.3-23.6-25.3-23.6zm194.8 8.4a67.3 67.3 0 0 0-25.3 17.7c5 28.7 16 53.1 27.8 73.4-20.2 22.8-38 34.6-38 34.6 13.6 6.7 30.4 5 30.4 5l22-20.2c13.5 17.7 26.1 28.7 30.3 32.9 21.1 2.5 32-4.2 32-4.2a234.3 234.3 0 0 1-42-52.3C1167.8 806 1172 779 1172 779c-6-16-15.2-16.9-15.2-16.9-6.7 21.1-16 39.7-27 55.7-12.6-27.8-19.4-51.4-23.6-64z"/>
            <path d="M983.2 751.2a311.2 311.2 0 0 0 16.8 213.3c6 6 19.4 6 19.4 6-6.7-19.5-11-38-14.3-56.6-6.7-90.2 23.6-151.8 34.6-139.1 8.4 30.4 13.5 98.7-23.6 103.7 0 0 11.8 12.7 27 9.3 55.6-32.9 28.6-113 23.6-121.4-22-12.7-42.2-3.4-42.2-3.4a172.5 172.5 0 0 0-22.8 60.7c1.7-28.7 6-50.6 7.6-61.6-5.9-10-26.1-11-26.1-11z"/>
        </g>
    </g>
</svg>
